<?xml version="1.0" encoding="UTF-8"?>
<!DOCTYPE svg PUBLIC "-//W3C//DTD SVG 1.1//EN" "http://www.w3.org/Graphics/SVG/1.1/DTD/svg11.dtd">
<svg xmlns="http://www.w3.org/2000/svg" version="1.1" width="500px" height="500px" style="shape-rendering:geometricPrecision; text-rendering:geometricPrecision; image-rendering:optimizeQuality; fill-rule:evenodd; clip-rule:evenodd" xmlns:xlink="http://www.w3.org/1999/xlink">
<g><path style="opacity:0.994" fill="#fdfdfc" d="M 227.5,-0.5 C 242.167,-0.5 256.833,-0.5 271.5,-0.5C 366.887,11.413 435.721,60.413 478,146.5C 489.414,172.498 496.581,199.498 499.5,227.5C 499.5,242.167 499.5,256.833 499.5,271.5C 487.587,366.887 438.587,435.721 352.5,478C 326.502,489.414 299.502,496.581 271.5,499.5C 256.833,499.5 242.167,499.5 227.5,499.5C 132.113,487.587 63.2792,438.587 21,352.5C 9.5857,326.502 2.41904,299.502 -0.5,271.5C -0.5,256.833 -0.5,242.167 -0.5,227.5C 11.413,132.113 60.413,63.2792 146.5,21C 172.498,9.5857 199.498,2.41904 227.5,-0.5 Z"/></g>
<g><path style="opacity:1" fill="#4692f0" d="M 380.5,132.5 C 380.672,133.492 380.338,134.158 379.5,134.5C 359.784,121.483 338.118,113.816 314.5,111.5C 312.735,110.539 310.735,110.205 308.5,110.5C 252.5,109.833 196.5,109.167 140.5,108.5C 164.66,83.5067 189.327,59.0067 214.5,35C 232.958,24.2607 252.291,22.594 272.5,30C 278.677,32.9193 284.344,36.5859 289.5,41C 319.981,71.314 350.314,101.814 380.5,132.5 Z"/></g>
<g><path style="opacity:1" fill="#4b8ce0" d="M 140.5,108.5 C 196.5,109.167 252.5,109.833 308.5,110.5C 251.664,110.832 194.998,110.499 138.5,109.5C 139.167,109.167 139.833,108.833 140.5,108.5 Z"/></g>
<g><path style="opacity:1" fill="#d4ebf6" d="M 138.5,109.5 C 194.998,110.499 251.664,110.832 308.5,110.5C 310.735,110.205 312.735,110.539 314.5,111.5C 255.496,111.833 196.496,111.5 137.5,110.5C 137.624,109.893 137.957,109.56 138.5,109.5 Z"/></g>
<g><path style="opacity:1" fill="#76a6e0" d="M 380.5,132.5 C 383.964,135.462 387.297,138.629 390.5,142C 389.833,142.667 389.167,142.667 388.5,142C 385.429,139.482 382.429,136.982 379.5,134.5C 380.338,134.158 380.672,133.492 380.5,132.5 Z"/></g>
<g><path style="opacity:1" fill="#94b9de" d="M 414.5,166.5 C 413.833,166.5 413.5,166.833 413.5,167.5C 412.017,165.906 410.517,164.24 409,162.5C 408.333,161.833 408.333,161.167 409,160.5C 411.04,162.37 412.873,164.37 414.5,166.5 Z"/></g>
<g><path style="opacity:1" fill="#69d0f7" d="M 332.5,202.5 C 330.123,204.039 327.623,205.373 325,206.5C 324.667,206.167 324.333,205.833 324,205.5C 323.378,207.731 322.211,209.565 320.5,211C 322.827,212.373 324.827,214.706 326.5,218C 324.782,218.346 323.115,218.846 321.5,219.5C 320.719,218.271 320.219,216.938 320,215.5C 319.682,217.061 318.849,218.228 317.5,219C 318.888,219.889 318.722,220.389 317,220.5C 315.674,219.201 314.34,217.868 313,216.5C 310.412,219.287 307.745,219.62 305,217.5C 304.845,219.856 304.845,222.189 305,224.5C 304,223.5 303,222.5 302,221.5C 301.612,222.428 300.945,223.095 300,223.5C 298.08,223.062 296.246,222.395 294.5,221.5C 296.14,221.847 297.807,221.347 299.5,220C 297.285,219.83 295.285,219.163 293.5,218C 295.095,218.617 296.428,218.284 297.5,217C 294.08,214.208 293.58,211.374 296,208.5C 297.333,208.5 298.667,208.5 300,208.5C 301.673,211.001 303.507,213.334 305.5,215.5C 306.711,214.726 306.711,213.893 305.5,213C 306.333,212.167 307.167,211.333 308,210.5C 309.84,211.833 310.34,211.666 309.5,210C 310.536,208.383 311.703,208.216 313,209.5C 313.333,208.167 313.667,206.833 314,205.5C 315.979,205.762 317.812,206.595 319.5,208C 319.167,207.667 318.833,207.333 318.5,207C 319.82,204.558 320.653,202.058 321,199.5C 319.527,201.136 317.693,202.136 315.5,202.5C 313.476,201.979 311.476,201.812 309.5,202C 310.956,202.423 311.456,203.256 311,204.5C 310,203.167 309,203.167 308,204.5C 308.918,199.797 307.918,199.463 305,203.5C 303.203,200.904 301.869,201.237 301,204.5C 299.659,201.813 297.993,200.147 296,199.5C 295.342,201.108 295.842,202.275 297.5,203C 296.584,203.374 295.75,203.874 295,204.5C 293.243,203.629 291.243,203.629 289,204.5C 287.289,204.561 285.956,203.894 285,202.5C 284.383,203.449 284.549,204.282 285.5,205C 284.083,207.826 282.583,207.993 281,205.5C 279.249,206.174 277.583,206.507 276,206.5C 275.692,205.692 275.192,205.025 274.5,204.5C 273.5,205.833 272.5,205.833 271.5,204.5C 270.5,205 269.5,205.5 268.5,206C 268.833,207 269.167,208 269.5,209C 268.5,209.667 267.5,209.667 266.5,209C 267.696,208.346 267.696,207.846 266.5,207.5C 265.749,208.376 265.249,209.376 265,210.5C 263.901,207.961 262.234,207.295 260,208.5C 258.513,207.747 258.346,206.914 259.5,206C 257.324,203.764 255.991,204.264 255.5,207.5C 254.271,208.281 252.938,208.781 251.5,209C 253.125,209.853 253.458,210.853 252.5,212C 250.873,211.57 249.373,211.404 248,211.5C 247.667,212.833 247.333,214.167 247,215.5C 246,214.167 245,214.167 244,215.5C 243.544,216.744 244.044,217.577 245.5,218C 244.101,218.595 242.768,218.428 241.5,217.5C 240.304,217.846 240.304,218.346 241.5,219C 239.193,219.779 237.193,219.279 235.5,217.5C 234.549,218.326 233.549,218.492 232.5,218C 232.833,217.667 233.167,217.333 233.5,217C 232.333,216.5 231.5,215.667 231,214.5C 229.383,215.536 229.216,216.703 230.5,218C 229.258,218.311 228.258,217.811 227.5,216.5C 226.914,216.709 226.414,217.043 226,217.5C 225.544,216.256 226.044,215.423 227.5,215C 225.598,214.801 224.098,213.967 223,212.5C 221.203,215.096 219.869,214.763 219,211.5C 217.783,212.386 216.449,213.386 215,214.5C 213.131,212.28 211.631,209.78 210.5,207C 211.022,206.05 211.689,205.216 212.5,204.5C 210.677,203.509 209.177,202.176 208,200.5C 207.517,201.448 207.351,202.448 207.5,203.5C 204.679,205.778 201.845,205.445 199,202.5C 198.51,203.793 198.343,205.127 198.5,206.5C 197.448,206.351 196.448,206.517 195.5,207C 198.196,208.075 200.196,209.908 201.5,212.5C 200.263,214.5 200.597,216.334 202.5,218C 201.672,218.915 200.672,219.581 199.5,220C 200.517,221.049 200.684,222.216 200,223.5C 198.354,222.221 197.187,220.555 196.5,218.5C 195.806,225.638 193.639,225.971 190,219.5C 189.692,220.308 189.192,220.975 188.5,221.5C 187.549,220.674 186.549,220.508 185.5,221C 185.665,222.117 185.998,223.284 186.5,224.5C 185.619,225.971 184.286,226.804 182.5,227C 183.167,227.333 183.833,227.667 184.5,228C 182.959,229.579 181.792,231.413 181,233.5C 179.47,232.364 178.137,231.364 177,230.5C 174.695,232.076 172.528,231.576 170.5,229C 171.167,228.667 171.833,228.333 172.5,228C 170.956,227.71 169.623,227.044 168.5,226C 170.809,225.244 172.809,225.744 174.5,227.5C 175.105,226.413 174.772,225.246 173.5,224C 174.784,223.316 175.951,223.483 177,224.5C 178.077,222.295 178.743,220.295 179,218.5C 179.915,219.328 180.581,220.328 181,221.5C 181.75,220.874 182.584,220.374 183.5,220C 182.495,218.493 181.162,217.327 179.5,216.5C 180.115,214.884 181.115,213.551 182.5,212.5C 181.96,211.252 181.293,210.085 180.5,209C 180.833,208 181.167,207 181.5,206C 180.004,205.493 178.837,205.993 178,207.5C 177.244,204.208 175.411,203.208 172.5,204.5C 173.879,205.863 173.713,206.863 172,207.5C 169.898,206.962 169.065,205.962 169.5,204.5C 168.459,206.991 167.626,206.991 167,204.5C 166.439,205.022 165.772,205.355 165,205.5C 163.337,204.01 161.67,203.344 160,203.5C 160.019,205.107 160.185,206.774 160.5,208.5C 162.5,208.5 164.5,208.5 166.5,208.5C 166.671,211.797 166.005,212.131 164.5,209.5C 162.902,211.973 161.402,211.973 160,209.5C 158.691,211.891 157.691,211.891 157,209.5C 155.703,210.784 154.536,210.617 153.5,209C 155.929,208.549 156.096,207.715 154,206.5C 152.23,207.276 150.397,207.11 148.5,206C 150.615,205.576 151.448,204.409 151,202.5C 149.119,204.825 147.452,204.825 146,202.5C 145.5,202.667 145,202.833 144.5,203C 147.346,204.4 147.679,205.9 145.5,207.5C 145.838,211.162 147.005,211.829 149,209.5C 149.423,210.956 150.256,211.456 151.5,211C 150.289,210.107 150.289,209.274 151.5,208.5C 153.441,210.316 154.108,212.316 153.5,214.5C 154.76,215.382 155.926,216.382 157,217.5C 157.333,217.167 157.667,216.833 158,216.5C 158.785,218.286 159.951,219.786 161.5,221C 159.117,221.065 158.45,221.898 159.5,223.5C 157.741,224.754 156.241,224.421 155,222.5C 155.498,224.527 155.331,226.527 154.5,228.5C 151.108,228.736 147.775,228.07 144.5,226.5C 145.055,230.584 144.055,231.251 141.5,228.5C 141.833,227.833 142.167,227.167 142.5,226.5C 141.194,225.088 140.36,223.421 140,221.5C 136.789,223.789 133.789,223.456 131,220.5C 130.333,221.833 129.667,223.167 129,224.5C 127.757,223.664 126.59,223.997 125.5,225.5C 127.178,228.43 126.678,229.43 124,228.5C 122.715,228.95 121.548,229.617 120.5,230.5C 119.088,229.194 117.421,228.36 115.5,228C 116.167,227.667 116.833,227.333 117.5,227C 116.034,226.365 114.7,225.531 113.5,224.5C 113.362,227.36 111.695,228.026 108.5,226.5C 107.833,227.5 107.167,228.5 106.5,229.5C 105.289,228.726 105.289,227.893 106.5,227C 105.289,226.213 104.289,225.546 103.5,225C 104.16,221.99 104.16,219.157 103.5,216.5C 104.167,216.167 104.833,215.833 105.5,215.5C 104.5,214.833 103.5,214.167 102.5,213.5C 103.641,212.575 103.641,211.741 102.5,211C 104.224,210.552 104.891,209.718 104.5,208.5C 105.5,209 106.5,209.5 107.5,210C 106.304,210.654 106.304,211.154 107.5,211.5C 108.102,208.121 110.102,206.288 113.5,206C 112.234,205.691 111.067,205.191 110,204.5C 109.667,205.167 109.333,205.833 109,206.5C 107.933,205.809 106.766,205.309 105.5,205C 106.696,204.346 106.696,203.846 105.5,203.5C 104.833,204.5 104.167,205.5 103.5,206.5C 102.719,205.263 101.719,204.263 100.5,203.5C 100.167,204.167 99.8333,204.833 99.5,205.5C 98.5745,204.359 97.7412,204.359 97,205.5C 96.0723,203.665 94.9056,203.332 93.5,204.5C 93.1667,204.333 92.8333,204.167 92.5,204C 93.8333,203 95.1667,202 96.5,201C 95.1667,200.333 93.8333,199.667 92.5,199C 93.6405,198.259 93.6405,197.425 92.5,196.5C 91.5,196.167 90.5,195.833 89.5,195.5C 80.6805,195.894 71.6805,196.06 62.5,196C 64.087,196.862 65.7536,197.529 67.5,198C 66.8333,198.333 66.1667,198.667 65.5,199C 66.5,200.667 67.8333,202 69.5,203C 69.1667,204.667 68.8333,206.333 68.5,208C 69.6667,208.5 70.5,209.333 71,210.5C 71.3333,209.833 71.6667,209.167 72,208.5C 72.6667,209.833 72.6667,211.167 72,212.5C 70.4419,211.655 69.4419,212.321 69,214.5C 68,213.167 67,213.167 66,214.5C 65.2935,212.919 64.4601,211.419 63.5,210C 65.9011,209.195 65.7344,208.362 63,207.5C 61.9326,208.191 60.7659,208.691 59.5,209C 61.5,210.333 63.1667,212 64.5,214C 63.6721,214.915 62.6721,215.581 61.5,216C 64.2876,218.374 63.9542,219.707 60.5,220C 61.6537,220.914 61.487,221.747 60,222.5C 59.3333,221.167 58.6667,221.167 58,222.5C 57.4169,220.998 56.5836,219.665 55.5,218.5C 54.7161,220.029 53.7161,221.696 52.5,223.5C 50.4021,222.516 48.4021,222.849 46.5,224.5C 47.55,226.102 46.8833,226.935 44.5,227C 45.8333,227.667 46.8333,228.667 47.5,230C 44.4254,231.602 41.4254,231.602 38.5,230C 39.7112,229.107 39.7112,228.274 38.5,227.5C 37.5214,230.953 36.0214,231.286 34,228.5C 33.3645,229.966 32.5312,231.3 31.5,232.5C 32.0253,233.192 32.6919,233.692 33.5,234C 31.7174,235.067 31.2174,236.567 32,238.5C 33.5185,238.057 34.6852,238.724 35.5,240.5C 34.2147,243.021 33.5481,245.687 33.5,248.5C 32.1266,248.657 30.7932,248.49 29.5,248C 29.8333,247.667 30.1667,247.333 30.5,247C 28.9588,245.421 27.7922,243.587 27,241.5C 26.7088,247.951 26.5421,254.618 26.5,261.5C 22.312,242.296 26.4787,224.963 39,209.5C 43.8333,204.667 48.6667,199.833 53.5,195C 139.833,194.333 226.167,194.333 312.5,195C 319.88,195.846 326.547,198.346 332.5,202.5 Z"/></g>
<g><path style="opacity:1" fill="#6bd0f7" d="M 349.5,218.5 C 362.848,239.076 362.682,259.742 349,280.5C 339.082,293.547 325.915,301.047 309.5,303C 224.5,303.667 139.5,303.667 54.5,303C 41.8209,293.497 32.8209,281.33 27.5,266.5C 29.5544,265.391 31.7211,264.391 34,263.5C 35.4162,264.573 36.7496,264.573 38,263.5C 38.4922,264.549 38.3256,265.549 37.5,266.5C 38.4415,266.489 39.1081,266.989 39.5,268C 38.3356,270.542 39.3356,271.875 42.5,272C 42.1667,272.333 41.8333,272.667 41.5,273C 43.9574,274.512 43.9574,275.846 41.5,277C 42.2135,278.343 41.8802,279.676 40.5,281C 41.7282,281.779 42.7282,282.779 43.5,284C 43.0877,286.462 43.0877,288.795 43.5,291C 44.5,291.667 45.5,291.667 46.5,291C 44.0155,288.716 43.8489,286.216 46,283.5C 47.7487,284.299 49.082,283.632 50,281.5C 51.2684,284.062 53.1018,284.728 55.5,283.5C 53.0425,282.876 51.3758,281.376 50.5,279C 49.552,278.517 48.552,278.351 47.5,278.5C 47.3287,275.203 47.9954,274.869 49.5,277.5C 50.5,276.167 51.5,276.167 52.5,277.5C 53.4656,274.872 55.1323,272.872 57.5,271.5C 58.1667,271.667 58.8333,271.833 59.5,272C 58.5,272.333 57.5,272.667 56.5,273C 57.6667,273.5 58.5,274.333 59,275.5C 60.4728,273.706 61.3062,272.04 61.5,270.5C 62.6074,271.022 63.7741,271.355 65,271.5C 66.9091,270.844 68.7424,270.344 70.5,270C 65.9297,273.069 65.5963,276.402 69.5,280C 68.842,284.816 66.342,288.316 62,290.5C 59.5658,296.069 61.3991,297.903 67.5,296C 66.9491,294.602 66.6158,293.268 66.5,292C 67.4144,289.403 69.081,289.07 71.5,291C 70.1373,293.129 70.4706,293.629 72.5,292.5C 73.6199,293.833 74.9532,294.333 76.5,294C 75.1667,293 75.1667,292 76.5,291C 79.147,289.701 81.8137,288.368 84.5,287C 83.062,286.781 81.7287,286.281 80.5,285.5C 79.4937,284.604 79.4937,283.938 80.5,283.5C 81.5032,285.542 82.8366,285.875 84.5,284.5C 85.6199,285.833 86.9532,286.333 88.5,286C 87.9783,283.814 87.9783,281.481 88.5,279C 90.3126,279.046 91.9793,278.88 93.5,278.5C 94.2811,279.729 94.7811,281.062 95,282.5C 95.3108,280.444 95.8108,278.444 96.5,276.5C 96.2907,275.914 95.9574,275.414 95.5,275C 96.8333,274.333 98.1667,273.667 99.5,273C 98.8333,272.667 98.1667,272.333 97.5,272C 98.7839,271.316 99.9505,271.483 101,272.5C 101.333,274.167 101.667,275.833 102,277.5C 103.646,275.945 103.979,274.279 103,272.5C 104,274.167 105,275.833 106,277.5C 106.374,276.584 106.874,275.75 107.5,275C 104.77,273.768 104.937,272.935 108,272.5C 109.326,272.755 110.326,273.422 111,274.5C 112.018,273.294 112.518,273.627 112.5,275.5C 112.333,276.167 112.167,276.833 112,277.5C 111.107,276.289 110.274,276.289 109.5,277.5C 110.347,279.061 110.014,280.561 108.5,282C 109.047,282.925 109.713,283.758 110.5,284.5C 110.736,283.753 111.07,282.92 111.5,282C 112.449,281.383 113.282,281.549 114,282.5C 115.067,280.717 116.567,280.217 118.5,281C 117.304,281.654 117.304,282.154 118.5,282.5C 119.192,281.975 119.692,281.308 120,280.5C 120.308,281.308 120.808,281.975 121.5,282.5C 122.415,280.082 123.915,278.082 126,276.5C 126.991,277.939 128.324,278.939 130,279.5C 131,283.167 132,286.833 133,290.5C 134.791,292.513 136.125,292.513 137,290.5C 139.543,291.876 139.709,293.043 137.5,294C 138.025,294.692 138.692,295.192 139.5,295.5C 140.298,293.922 140.798,292.256 141,290.5C 141.889,291.888 142.389,291.722 142.5,290C 140.035,285.498 140.535,285.332 144,289.5C 145,287.833 146,286.167 147,284.5C 146.57,286.127 146.404,287.627 146.5,289C 147.682,290.678 148.848,290.512 150,288.5C 151.548,289.684 153.048,289.517 154.5,288C 153.626,285.965 153.293,283.632 153.5,281C 155.598,280.986 157.431,281.153 159,281.5C 159.154,278.475 160.654,276.809 163.5,276.5C 163.5,274.833 163.5,273.167 163.5,271.5C 168.724,271.351 173.724,271.351 178.5,271.5C 179.333,272.5 180.167,273.5 181,274.5C 181.333,274.167 181.667,273.833 182,273.5C 181.621,275.075 181.788,276.575 182.5,278C 185.377,278.725 188.043,278.225 190.5,276.5C 191.478,276.977 192.311,277.643 193,278.5C 193.333,277.5 193.667,276.5 194,275.5C 194.333,275.833 194.667,276.167 195,276.5C 195.856,273.812 197.69,272.146 200.5,271.5C 199.001,270.096 199.334,269.43 201.5,269.5C 202.167,269.667 202.833,269.833 203.5,270C 202.304,270.654 202.304,271.154 203.5,271.5C 205.467,270.318 206.8,270.985 207.5,273.5C 208.696,273.154 208.696,272.654 207.5,272C 208.5,271.333 209.5,271.333 210.5,272C 209.167,272.667 209.167,273.333 210.5,274C 207.456,274.359 207.122,275.026 209.5,276C 209.073,278.128 209.573,280.295 211,282.5C 212.389,278.728 213.389,278.728 214,282.5C 215.333,281.167 216.667,281.167 218,282.5C 218.915,281.672 219.581,280.672 220,279.5C 222.312,279.955 224.312,280.955 226,282.5C 226.75,281.874 227.584,281.374 228.5,281C 226.729,280.465 226.396,279.631 227.5,278.5C 228.812,279.46 230.146,279.294 231.5,278C 229.071,277.549 228.904,276.715 231,275.5C 232.333,276.167 233.333,277.167 234,278.5C 234.749,277.365 234.583,276.365 233.5,275.5C 232.274,273.637 230.941,272.637 229.5,272.5C 230.5,271.667 231.5,270.833 232.5,270C 231.167,269.333 229.833,268.667 228.5,268C 229.833,267.667 231.167,267.333 232.5,267C 230.314,266.396 230.148,265.23 232,263.5C 232.419,264.672 233.085,265.672 234,266.5C 234.722,264.339 234.055,262.672 232,261.5C 230.853,262.458 229.853,262.125 229,260.5C 228.667,262.5 228.333,264.5 228,266.5C 227.692,265.692 227.192,265.025 226.5,264.5C 225.15,265.95 223.484,266.617 221.5,266.5C 221.36,264.876 222.027,263.71 223.5,263C 221.941,261.244 220.274,261.244 218.5,263C 219.167,263.333 219.833,263.667 220.5,264C 219.167,264.667 218.167,265.667 217.5,267C 218.711,267.893 218.711,268.726 217.5,269.5C 216.094,268.332 214.928,268.665 214,270.5C 211.942,269.891 211.109,268.891 211.5,267.5C 210.201,268.09 209.368,269.09 209,270.5C 208.626,269.584 208.126,268.75 207.5,268C 208.126,267.25 208.626,266.416 209,265.5C 209.893,266.711 210.726,266.711 211.5,265.5C 209.728,264.73 208.728,263.397 208.5,261.5C 210.433,260.399 212.1,258.399 213.5,255.5C 211.663,252.869 212.163,250.869 215,249.5C 216.388,250.554 217.888,250.72 219.5,250C 217.056,246.916 214.056,246.083 210.5,247.5C 209.692,247.192 209.025,246.692 208.5,246C 210.076,244.423 211.909,243.256 214,242.5C 215.652,242.86 217.318,243.193 219,243.5C 219.333,242.833 219.667,242.167 220,241.5C 220.833,244 222,244.167 223.5,242C 220.035,241.066 219.702,239.566 222.5,237.5C 224.666,239.532 226.666,239.032 228.5,236C 227.692,235.692 227.025,235.192 226.5,234.5C 228.074,233.016 229.407,231.349 230.5,229.5C 230.167,228.833 229.833,228.167 229.5,227.5C 231.197,226.636 232.363,225.303 233,223.5C 233.483,224.448 233.649,225.448 233.5,226.5C 236.797,226.671 237.131,226.005 234.5,224.5C 235.167,224.167 235.833,223.833 236.5,223.5C 238.13,224.421 239.797,225.255 241.5,226C 239.071,226.451 238.904,227.285 241,228.5C 244.667,226.167 247.667,223.167 250,219.5C 250.605,221.481 251.605,221.815 253,220.5C 255.262,223.097 257.095,222.93 258.5,220C 258.589,218.284 258.256,216.451 257.5,214.5C 258.855,212.071 260.522,210.738 262.5,210.5C 261.167,211.62 260.667,212.953 261,214.5C 262.016,213.366 262.683,213.699 263,215.5C 263.333,214.5 263.667,213.5 264,212.5C 264.5,213.667 265.333,214.5 266.5,215C 264.122,215.974 264.456,216.641 267.5,217C 266.743,218.512 265.743,219.846 264.5,221C 265.167,221.333 265.833,221.667 266.5,222C 265.289,222.893 265.289,223.726 266.5,224.5C 267.519,223.313 268.686,222.313 270,221.5C 270.309,222.766 270.809,223.933 271.5,225C 273.178,224.888 274.845,224.388 276.5,223.5C 278.569,223.824 278.902,224.658 277.5,226C 278.449,226.617 279.282,226.451 280,225.5C 280.465,226.931 281.299,228.097 282.5,229C 279.701,229.439 278.701,230.772 279.5,233C 278.833,233.667 278.167,234.333 277.5,235C 279.403,236.447 281.07,238.114 282.5,240C 280.519,240.605 280.185,241.605 281.5,243C 282.549,243.492 283.549,243.326 284.5,242.5C 285.5,243.167 286.5,243.833 287.5,244.5C 290.199,242.152 293.199,240.318 296.5,239C 295.167,238.667 293.833,238.333 292.5,238C 294.101,237.727 295.601,237.227 297,236.5C 297.324,238.569 298.158,238.902 299.5,237.5C 300.281,236.271 300.781,234.938 301,233.5C 302.113,234.76 302.28,235.927 301.5,237C 302.167,237.333 302.833,237.667 303.5,238C 303.167,239 302.833,240 302.5,241C 303.449,241.617 304.282,241.451 305,240.5C 307.003,242.725 306.503,244.392 303.5,245.5C 306.057,245.903 307.724,247.736 308.5,251C 308,251.5 307.5,252 307,252.5C 306.633,248.719 305.3,248.052 303,250.5C 302.667,249.833 302.333,249.167 302,248.5C 300.156,250.171 299.49,252.171 300,254.5C 306.435,252.459 307.269,253.959 302.5,259C 304.569,259.324 304.902,260.158 303.5,261.5C 305.824,261.676 308.157,261.843 310.5,262C 309.577,259.952 310.077,258.119 312,256.5C 314.563,259.317 316.396,258.817 317.5,255C 316.328,254.581 315.328,253.915 314.5,253C 316.427,250.711 317.761,248.544 318.5,246.5C 319.386,247.325 319.719,248.325 319.5,249.5C 321.143,249.48 322.476,250.147 323.5,251.5C 324.571,249.675 323.904,248.508 321.5,248C 323.377,247.424 325.211,247.591 327,248.5C 328.506,246.672 330.173,246.338 332,247.5C 332.333,246.833 332.667,246.167 333,245.5C 333.934,248.965 335.434,249.298 337.5,246.5C 337.677,250.117 339.177,253.451 342,256.5C 342.626,254.009 343.459,254.009 344.5,256.5C 344.423,254.69 345.59,253.356 348,252.5C 348.333,253.167 348.667,253.833 349,254.5C 348.294,252.375 347.794,250.375 347.5,248.5C 348.498,245.972 349.331,245.972 350,248.5C 351,246.833 352,245.167 353,243.5C 353.333,244.167 353.667,244.833 354,245.5C 354.49,244.207 354.657,242.873 354.5,241.5C 353.448,241.649 352.448,241.483 351.5,241C 353.167,240.333 354.833,240.333 356.5,241C 356.167,241.333 355.833,241.667 355.5,242C 357.099,243.786 357.933,245.953 358,248.5C 358.579,244.797 358.412,241.131 357.5,237.5C 353.901,237.738 353.567,236.738 356.5,234.5C 355.253,231.671 353.753,229.005 352,226.5C 350.282,228.202 350.115,230.035 351.5,232C 350.975,232.692 350.308,233.192 349.5,233.5C 348.549,232.674 347.549,232.508 346.5,233C 345.075,234.362 344.242,235.862 344,237.5C 341.734,234.646 342.234,232.813 345.5,232C 344.833,231.333 344.167,230.667 343.5,230C 344.711,228.887 344.711,227.72 343.5,226.5C 344.833,224.5 346.5,222.833 348.5,221.5C 346.908,219.775 347.242,218.775 349.5,218.5 Z"/></g>
<g><path style="opacity:1" fill="#4890f0" d="M 414.5,166.5 C 429.159,181.659 443.992,196.659 459,211.5C 474.971,235.045 475.637,259.045 461,283.5C 455.996,289.67 450.496,295.337 444.5,300.5C 442.997,299.318 441.33,298.818 439.5,299C 439.588,300.578 439.588,302.078 439.5,303.5C 437.66,301.562 435.994,299.562 434.5,297.5C 433.52,294.914 433.187,292.247 433.5,289.5C 445.427,245.732 438.761,205.066 413.5,167.5C 413.5,166.833 413.833,166.5 414.5,166.5 Z"/></g>
<g><path style="opacity:1" fill="#6bcff8" d="M 332.5,202.5 C 336.88,204.7 340.88,207.533 344.5,211C 346.415,213.4 348.081,215.9 349.5,218.5C 347.242,218.775 346.908,219.775 348.5,221.5C 346.5,222.833 344.833,224.5 343.5,226.5C 344.711,227.72 344.711,228.887 343.5,230C 344.167,230.667 344.833,231.333 345.5,232C 342.234,232.813 341.734,234.646 344,237.5C 344.242,235.862 345.075,234.362 346.5,233C 347.549,232.508 348.549,232.674 349.5,233.5C 350.308,233.192 350.975,232.692 351.5,232C 350.115,230.035 350.282,228.202 352,226.5C 353.753,229.005 355.253,231.671 356.5,234.5C 353.567,236.738 353.901,237.738 357.5,237.5C 358.412,241.131 358.579,244.797 358,248.5C 357.933,245.953 357.099,243.786 355.5,242C 355.833,241.667 356.167,241.333 356.5,241C 354.833,240.333 353.167,240.333 351.5,241C 352.448,241.483 353.448,241.649 354.5,241.5C 354.657,242.873 354.49,244.207 354,245.5C 353.667,244.833 353.333,244.167 353,243.5C 352,245.167 351,246.833 350,248.5C 349.331,245.972 348.498,245.972 347.5,248.5C 347.794,250.375 348.294,252.375 349,254.5C 348.667,253.833 348.333,253.167 348,252.5C 345.59,253.356 344.423,254.69 344.5,256.5C 343.459,254.009 342.626,254.009 342,256.5C 339.177,253.451 337.677,250.117 337.5,246.5C 335.434,249.298 333.934,248.965 333,245.5C 332.667,246.167 332.333,246.833 332,247.5C 330.173,246.338 328.506,246.672 327,248.5C 325.211,247.591 323.377,247.424 321.5,248C 323.904,248.508 324.571,249.675 323.5,251.5C 322.476,250.147 321.143,249.48 319.5,249.5C 319.719,248.325 319.386,247.325 318.5,246.5C 317.761,248.544 316.427,250.711 314.5,253C 315.328,253.915 316.328,254.581 317.5,255C 316.396,258.817 314.563,259.317 312,256.5C 310.077,258.119 309.577,259.952 310.5,262C 308.157,261.843 305.824,261.676 303.5,261.5C 304.902,260.158 304.569,259.324 302.5,259C 307.269,253.959 306.435,252.459 300,254.5C 299.49,252.171 300.156,250.171 302,248.5C 302.333,249.167 302.667,249.833 303,250.5C 305.3,248.052 306.633,248.719 307,252.5C 307.5,252 308,251.5 308.5,251C 307.724,247.736 306.057,245.903 303.5,245.5C 306.503,244.392 307.003,242.725 305,240.5C 304.282,241.451 303.449,241.617 302.5,241C 302.833,240 303.167,239 303.5,238C 302.833,237.667 302.167,237.333 301.5,237C 302.28,235.927 302.113,234.76 301,233.5C 300.781,234.938 300.281,236.271 299.5,237.5C 298.158,238.902 297.324,238.569 297,236.5C 295.601,237.227 294.101,237.727 292.5,238C 293.833,238.333 295.167,238.667 296.5,239C 293.199,240.318 290.199,242.152 287.5,244.5C 286.5,243.833 285.5,243.167 284.5,242.5C 283.549,243.326 282.549,243.492 281.5,243C 280.185,241.605 280.519,240.605 282.5,240C 281.07,238.114 279.403,236.447 277.5,235C 278.167,234.333 278.833,233.667 279.5,233C 278.701,230.772 279.701,229.439 282.5,229C 281.299,228.097 280.465,226.931 280,225.5C 279.282,226.451 278.449,226.617 277.5,226C 278.902,224.658 278.569,223.824 276.5,223.5C 274.845,224.388 273.178,224.888 271.5,225C 270.809,223.933 270.309,222.766 270,221.5C 268.686,222.313 267.519,223.313 266.5,224.5C 265.289,223.726 265.289,222.893 266.5,222C 265.833,221.667 265.167,221.333 264.5,221C 265.743,219.846 266.743,218.512 267.5,217C 264.456,216.641 264.122,215.974 266.5,215C 265.333,214.5 264.5,213.667 264,212.5C 263.667,213.5 263.333,214.5 263,215.5C 262.683,213.699 262.016,213.366 261,214.5C 260.667,212.953 261.167,211.62 262.5,210.5C 260.522,210.738 258.855,212.071 257.5,214.5C 258.256,216.451 258.589,218.284 258.5,220C 257.095,222.93 255.262,223.097 253,220.5C 251.605,221.815 250.605,221.481 250,219.5C 247.667,223.167 244.667,226.167 241,228.5C 238.904,227.285 239.071,226.451 241.5,226C 239.797,225.255 238.13,224.421 236.5,223.5C 235.833,223.833 235.167,224.167 234.5,224.5C 237.131,226.005 236.797,226.671 233.5,226.5C 233.649,225.448 233.483,224.448 233,223.5C 232.363,225.303 231.197,226.636 229.5,227.5C 229.833,228.167 230.167,228.833 230.5,229.5C 229.407,231.349 228.074,233.016 226.5,234.5C 227.025,235.192 227.692,235.692 228.5,236C 226.666,239.032 224.666,239.532 222.5,237.5C 219.702,239.566 220.035,241.066 223.5,242C 222,244.167 220.833,244 220,241.5C 219.667,242.167 219.333,242.833 219,243.5C 217.318,243.193 215.652,242.86 214,242.5C 211.909,243.256 210.076,244.423 208.5,246C 209.025,246.692 209.692,247.192 210.5,247.5C 214.056,246.083 217.056,246.916 219.5,250C 217.888,250.72 216.388,250.554 215,249.5C 212.163,250.869 211.663,252.869 213.5,255.5C 212.1,258.399 210.433,260.399 208.5,261.5C 208.728,263.397 209.728,264.73 211.5,265.5C 210.726,266.711 209.893,266.711 209,265.5C 208.626,266.416 208.126,267.25 207.5,268C 208.126,268.75 208.626,269.584 209,270.5C 209.368,269.09 210.201,268.09 211.5,267.5C 211.109,268.891 211.942,269.891 214,270.5C 214.928,268.665 216.094,268.332 217.5,269.5C 218.711,268.726 218.711,267.893 217.5,267C 218.167,265.667 219.167,264.667 220.5,264C 219.833,263.667 219.167,263.333 218.5,263C 220.274,261.244 221.941,261.244 223.5,263C 222.027,263.71 221.36,264.876 221.5,266.5C 223.484,266.617 225.15,265.95 226.5,264.5C 227.192,265.025 227.692,265.692 228,266.5C 228.333,264.5 228.667,262.5 229,260.5C 229.853,262.125 230.853,262.458 232,261.5C 234.055,262.672 234.722,264.339 234,266.5C 233.085,265.672 232.419,264.672 232,263.5C 230.148,265.23 230.314,266.396 232.5,267C 231.167,267.333 229.833,267.667 228.5,268C 229.833,268.667 231.167,269.333 232.5,270C 231.5,270.833 230.5,271.667 229.5,272.5C 230.941,272.637 232.274,273.637 233.5,275.5C 234.583,276.365 234.749,277.365 234,278.5C 233.333,277.167 232.333,276.167 231,275.5C 228.904,276.715 229.071,277.549 231.5,278C 230.146,279.294 228.812,279.46 227.5,278.5C 226.396,279.631 226.729,280.465 228.5,281C 227.584,281.374 226.75,281.874 226,282.5C 224.312,280.955 222.312,279.955 220,279.5C 219.581,280.672 218.915,281.672 218,282.5C 216.667,281.167 215.333,281.167 214,282.5C 213.389,278.728 212.389,278.728 211,282.5C 209.573,280.295 209.073,278.128 209.5,276C 207.122,275.026 207.456,274.359 210.5,274C 209.167,273.333 209.167,272.667 210.5,272C 209.5,271.333 208.5,271.333 207.5,272C 208.696,272.654 208.696,273.154 207.5,273.5C 206.8,270.985 205.467,270.318 203.5,271.5C 202.304,271.154 202.304,270.654 203.5,270C 202.833,269.833 202.167,269.667 201.5,269.5C 199.334,269.43 199.001,270.096 200.5,271.5C 197.69,272.146 195.856,273.812 195,276.5C 194.667,276.167 194.333,275.833 194,275.5C 193.667,276.5 193.333,277.5 193,278.5C 192.311,277.643 191.478,276.977 190.5,276.5C 188.043,278.225 185.377,278.725 182.5,278C 181.788,276.575 181.621,275.075 182,273.5C 181.667,273.833 181.333,274.167 181,274.5C 180.167,273.5 179.333,272.5 178.5,271.5C 173.724,271.351 168.724,271.351 163.5,271.5C 163.5,273.167 163.5,274.833 163.5,276.5C 160.654,276.809 159.154,278.475 159,281.5C 157.431,281.153 155.598,280.986 153.5,281C 153.293,283.632 153.626,285.965 154.5,288C 153.048,289.517 151.548,289.684 150,288.5C 148.848,290.512 147.682,290.678 146.5,289C 146.404,287.627 146.57,286.127 147,284.5C 146,286.167 145,287.833 144,289.5C 140.535,285.332 140.035,285.498 142.5,290C 142.389,291.722 141.889,291.888 141,290.5C 140.798,292.256 140.298,293.922 139.5,295.5C 138.692,295.192 138.025,294.692 137.5,294C 139.709,293.043 139.543,291.876 137,290.5C 136.125,292.513 134.791,292.513 133,290.5C 132,286.833 131,283.167 130,279.5C 128.324,278.939 126.991,277.939 126,276.5C 123.915,278.082 122.415,280.082 121.5,282.5C 120.808,281.975 120.308,281.308 120,280.5C 119.692,281.308 119.192,281.975 118.5,282.5C 117.304,282.154 117.304,281.654 118.5,281C 116.567,280.217 115.067,280.717 114,282.5C 113.282,281.549 112.449,281.383 111.5,282C 111.07,282.92 110.736,283.753 110.5,284.5C 109.713,283.758 109.047,282.925 108.5,282C 110.014,280.561 110.347,279.061 109.5,277.5C 110.274,276.289 111.107,276.289 112,277.5C 112.167,276.833 112.333,276.167 112.5,275.5C 112.518,273.627 112.018,273.294 111,274.5C 110.326,273.422 109.326,272.755 108,272.5C 104.937,272.935 104.77,273.768 107.5,275C 106.874,275.75 106.374,276.584 106,277.5C 105,275.833 104,274.167 103,272.5C 103.979,274.279 103.646,275.945 102,277.5C 101.667,275.833 101.333,274.167 101,272.5C 99.9505,271.483 98.7839,271.316 97.5,272C 98.1667,272.333 98.8333,272.667 99.5,273C 98.1667,273.667 96.8333,274.333 95.5,275C 95.9574,275.414 96.2907,275.914 96.5,276.5C 95.8108,278.444 95.3108,280.444 95,282.5C 94.7811,281.062 94.2811,279.729 93.5,278.5C 91.9793,278.88 90.3126,279.046 88.5,279C 87.9783,281.481 87.9783,283.814 88.5,286C 86.9532,286.333 85.6199,285.833 84.5,284.5C 82.8366,285.875 81.5032,285.542 80.5,283.5C 79.4937,283.938 79.4937,284.604 80.5,285.5C 81.7287,286.281 83.062,286.781 84.5,287C 81.8137,288.368 79.147,289.701 76.5,291C 75.1667,292 75.1667,293 76.5,294C 74.9532,294.333 73.6199,293.833 72.5,292.5C 70.4706,293.629 70.1373,293.129 71.5,291C 69.081,289.07 67.4144,289.403 66.5,292C 66.6158,293.268 66.9491,294.602 67.5,296C 61.3991,297.903 59.5658,296.069 62,290.5C 66.342,288.316 68.842,284.816 69.5,280C 65.5963,276.402 65.9297,273.069 70.5,270C 68.7424,270.344 66.9091,270.844 65,271.5C 63.7741,271.355 62.6074,271.022 61.5,270.5C 61.3062,272.04 60.4728,273.706 59,275.5C 58.5,274.333 57.6667,273.5 56.5,273C 57.5,272.667 58.5,272.333 59.5,272C 58.8333,271.833 58.1667,271.667 57.5,271.5C 55.1323,272.872 53.4656,274.872 52.5,277.5C 51.5,276.167 50.5,276.167 49.5,277.5C 47.9954,274.869 47.3287,275.203 47.5,278.5C 48.552,278.351 49.552,278.517 50.5,279C 51.3758,281.376 53.0425,282.876 55.5,283.5C 53.1018,284.728 51.2684,284.062 50,281.5C 49.082,283.632 47.7487,284.299 46,283.5C 43.8489,286.216 44.0155,288.716 46.5,291C 45.5,291.667 44.5,291.667 43.5,291C 43.0877,288.795 43.0877,286.462 43.5,284C 42.7282,282.779 41.7282,281.779 40.5,281C 41.8802,279.676 42.2135,278.343 41.5,277C 43.9574,275.846 43.9574,274.512 41.5,273C 41.8333,272.667 42.1667,272.333 42.5,272C 39.3356,271.875 38.3356,270.542 39.5,268C 39.1081,266.989 38.4415,266.489 37.5,266.5C 38.3256,265.549 38.4922,264.549 38,263.5C 36.7496,264.573 35.4162,264.573 34,263.5C 31.7211,264.391 29.5544,265.391 27.5,266.5C 26.962,264.883 26.6287,263.216 26.5,261.5C 26.5421,254.618 26.7088,247.951 27,241.5C 27.7922,243.587 28.9588,245.421 30.5,247C 30.1667,247.333 29.8333,247.667 29.5,248C 30.7932,248.49 32.1266,248.657 33.5,248.5C 33.5481,245.687 34.2147,243.021 35.5,240.5C 34.6852,238.724 33.5185,238.057 32,238.5C 31.2174,236.567 31.7174,235.067 33.5,234C 32.6919,233.692 32.0253,233.192 31.5,232.5C 32.5312,231.3 33.3645,229.966 34,228.5C 36.0214,231.286 37.5214,230.953 38.5,227.5C 39.7112,228.274 39.7112,229.107 38.5,230C 41.4254,231.602 44.4254,231.602 47.5,230C 46.8333,228.667 45.8333,227.667 44.5,227C 46.8833,226.935 47.55,226.102 46.5,224.5C 48.4021,222.849 50.4021,222.516 52.5,223.5C 53.7161,221.696 54.7161,220.029 55.5,218.5C 56.5836,219.665 57.4169,220.998 58,222.5C 58.6667,221.167 59.3333,221.167 60,222.5C 61.487,221.747 61.6537,220.914 60.5,220C 63.9542,219.707 64.2876,218.374 61.5,216C 62.6721,215.581 63.6721,214.915 64.5,214C 63.1667,212 61.5,210.333 59.5,209C 60.7659,208.691 61.9326,208.191 63,207.5C 65.7344,208.362 65.9011,209.195 63.5,210C 64.4601,211.419 65.2935,212.919 66,214.5C 67,213.167 68,213.167 69,214.5C 69.4419,212.321 70.4419,211.655 72,212.5C 72.6667,211.167 72.6667,209.833 72,208.5C 71.6667,209.167 71.3333,209.833 71,210.5C 70.5,209.333 69.6667,208.5 68.5,208C 68.8333,206.333 69.1667,204.667 69.5,203C 67.8333,202 66.5,200.667 65.5,199C 66.1667,198.667 66.8333,198.333 67.5,198C 65.7536,197.529 64.087,196.862 62.5,196C 71.6805,196.06 80.6805,195.894 89.5,195.5C 90.5,195.833 91.5,196.167 92.5,196.5C 93.6405,197.425 93.6405,198.259 92.5,199C 93.8333,199.667 95.1667,200.333 96.5,201C 95.1667,202 93.8333,203 92.5,204C 92.8333,204.167 93.1667,204.333 93.5,204.5C 94.9056,203.332 96.0723,203.665 97,205.5C 97.7412,204.359 98.5745,204.359 99.5,205.5C 99.8333,204.833 100.167,204.167 100.5,203.5C 101.719,204.263 102.719,205.263 103.5,206.5C 104.167,205.5 104.833,204.5 105.5,203.5C 106.696,203.846 106.696,204.346 105.5,205C 106.766,205.309 107.933,205.809 109,206.5C 109.333,205.833 109.667,205.167 110,204.5C 111.067,205.191 112.234,205.691 113.5,206C 110.102,206.288 108.102,208.121 107.5,211.5C 106.304,211.154 106.304,210.654 107.5,210C 106.5,209.5 105.5,209 104.5,208.5C 104.891,209.718 104.224,210.552 102.5,211C 103.641,211.741 103.641,212.575 102.5,213.5C 103.5,214.167 104.5,214.833 105.5,215.5C 104.833,215.833 104.167,216.167 103.5,216.5C 104.16,219.157 104.16,221.99 103.5,225C 104.289,225.546 105.289,226.213 106.5,227C 105.289,227.893 105.289,228.726 106.5,229.5C 107.167,228.5 107.833,227.5 108.5,226.5C 111.695,228.026 113.362,227.36 113.5,224.5C 114.7,225.531 116.034,226.365 117.5,227C 116.833,227.333 116.167,227.667 115.5,228C 117.421,228.36 119.088,229.194 120.5,230.5C 121.548,229.617 122.715,228.95 124,228.5C 126.678,229.43 127.178,228.43 125.5,225.5C 126.59,223.997 127.757,223.664 129,224.5C 129.667,223.167 130.333,221.833 131,220.5C 133.789,223.456 136.789,223.789 140,221.5C 140.36,223.421 141.194,225.088 142.5,226.5C 142.167,227.167 141.833,227.833 141.5,228.5C 144.055,231.251 145.055,230.584 144.5,226.5C 147.775,228.07 151.108,228.736 154.5,228.5C 155.331,226.527 155.498,224.527 155,222.5C 156.241,224.421 157.741,224.754 159.5,223.5C 158.45,221.898 159.117,221.065 161.5,221C 159.951,219.786 158.785,218.286 158,216.5C 157.667,216.833 157.333,217.167 157,217.5C 155.926,216.382 154.76,215.382 153.5,214.5C 154.108,212.316 153.441,210.316 151.5,208.5C 150.289,209.274 150.289,210.107 151.5,211C 150.256,211.456 149.423,210.956 149,209.5C 147.005,211.829 145.838,211.162 145.5,207.5C 147.679,205.9 147.346,204.4 144.5,203C 145,202.833 145.5,202.667 146,202.5C 147.452,204.825 149.119,204.825 151,202.5C 151.448,204.409 150.615,205.576 148.5,206C 150.397,207.11 152.23,207.276 154,206.5C 156.096,207.715 155.929,208.549 153.5,209C 154.536,210.617 155.703,210.784 157,209.5C 157.691,211.891 158.691,211.891 160,209.5C 161.402,211.973 162.902,211.973 164.5,209.5C 166.005,212.131 166.671,211.797 166.5,208.5C 164.5,208.5 162.5,208.5 160.5,208.5C 160.185,206.774 160.019,205.107 160,203.5C 161.67,203.344 163.337,204.01 165,205.5C 165.772,205.355 166.439,205.022 167,204.5C 167.626,206.991 168.459,206.991 169.5,204.5C 169.065,205.962 169.898,206.962 172,207.5C 173.713,206.863 173.879,205.863 172.5,204.5C 175.411,203.208 177.244,204.208 178,207.5C 178.837,205.993 180.004,205.493 181.5,206C 181.167,207 180.833,208 180.5,209C 181.293,210.085 181.96,211.252 182.5,212.5C 181.115,213.551 180.115,214.884 179.5,216.5C 181.162,217.327 182.495,218.493 183.5,220C 182.584,220.374 181.75,220.874 181,221.5C 180.581,220.328 179.915,219.328 179,218.5C 178.743,220.295 178.077,222.295 177,224.5C 175.951,223.483 174.784,223.316 173.5,224C 174.772,225.246 175.105,226.413 174.5,227.5C 172.809,225.744 170.809,225.244 168.5,226C 169.623,227.044 170.956,227.71 172.5,228C 171.833,228.333 171.167,228.667 170.5,229C 172.528,231.576 174.695,232.076 177,230.5C 178.137,231.364 179.47,232.364 181,233.5C 181.792,231.413 182.959,229.579 184.5,228C 183.833,227.667 183.167,227.333 182.5,227C 184.286,226.804 185.619,225.971 186.5,224.5C 185.998,223.284 185.665,222.117 185.5,221C 186.549,220.508 187.549,220.674 188.5,221.5C 189.192,220.975 189.692,220.308 190,219.5C 193.639,225.971 195.806,225.638 196.5,218.5C 197.187,220.555 198.354,222.221 200,223.5C 200.684,222.216 200.517,221.049 199.5,220C 200.672,219.581 201.672,218.915 202.5,218C 200.597,216.334 200.263,214.5 201.5,212.5C 200.196,209.908 198.196,208.075 195.5,207C 196.448,206.517 197.448,206.351 198.5,206.5C 198.343,205.127 198.51,203.793 199,202.5C 201.845,205.445 204.679,205.778 207.5,203.5C 207.351,202.448 207.517,201.448 208,200.5C 209.177,202.176 210.677,203.509 212.5,204.5C 211.689,205.216 211.022,206.05 210.5,207C 211.631,209.78 213.131,212.28 215,214.5C 216.449,213.386 217.783,212.386 219,211.5C 219.869,214.763 221.203,215.096 223,212.5C 224.098,213.967 225.598,214.801 227.5,215C 226.044,215.423 225.544,216.256 226,217.5C 226.414,217.043 226.914,216.709 227.5,216.5C 228.258,217.811 229.258,218.311 230.5,218C 229.216,216.703 229.383,215.536 231,214.5C 231.5,215.667 232.333,216.5 233.5,217C 233.167,217.333 232.833,217.667 232.5,218C 233.549,218.492 234.549,218.326 235.5,217.5C 237.193,219.279 239.193,219.779 241.5,219C 240.304,218.346 240.304,217.846 241.5,217.5C 242.768,218.428 244.101,218.595 245.5,218C 244.044,217.577 243.544,216.744 244,215.5C 245,214.167 246,214.167 247,215.5C 247.333,214.167 247.667,212.833 248,211.5C 249.373,211.404 250.873,211.57 252.5,212C 253.458,210.853 253.125,209.853 251.5,209C 252.938,208.781 254.271,208.281 255.5,207.5C 255.991,204.264 257.324,203.764 259.5,206C 258.346,206.914 258.513,207.747 260,208.5C 262.234,207.295 263.901,207.961 265,210.5C 265.249,209.376 265.749,208.376 266.5,207.5C 267.696,207.846 267.696,208.346 266.5,209C 267.5,209.667 268.5,209.667 269.5,209C 269.167,208 268.833,207 268.5,206C 269.5,205.5 270.5,205 271.5,204.5C 272.5,205.833 273.5,205.833 274.5,204.5C 275.192,205.025 275.692,205.692 276,206.5C 277.583,206.507 279.249,206.174 281,205.5C 282.583,207.993 284.083,207.826 285.5,205C 284.549,204.282 284.383,203.449 285,202.5C 285.956,203.894 287.289,204.561 289,204.5C 291.243,203.629 293.243,203.629 295,204.5C 295.75,203.874 296.584,203.374 297.5,203C 295.842,202.275 295.342,201.108 296,199.5C 297.993,200.147 299.659,201.813 301,204.5C 301.869,201.237 303.203,200.904 305,203.5C 307.918,199.463 308.918,199.797 308,204.5C 309,203.167 310,203.167 311,204.5C 311.456,203.256 310.956,202.423 309.5,202C 311.476,201.812 313.476,201.979 315.5,202.5C 317.693,202.136 319.527,201.136 321,199.5C 320.653,202.058 319.82,204.558 318.5,207C 318.833,207.333 319.167,207.667 319.5,208C 317.812,206.595 315.979,205.762 314,205.5C 313.667,206.833 313.333,208.167 313,209.5C 311.703,208.216 310.536,208.383 309.5,210C 310.34,211.666 309.84,211.833 308,210.5C 307.167,211.333 306.333,212.167 305.5,213C 306.711,213.893 306.711,214.726 305.5,215.5C 303.507,213.334 301.673,211.001 300,208.5C 298.667,208.5 297.333,208.5 296,208.5C 293.58,211.374 294.08,214.208 297.5,217C 296.428,218.284 295.095,218.617 293.5,218C 295.285,219.163 297.285,219.83 299.5,220C 297.807,221.347 296.14,221.847 294.5,221.5C 296.246,222.395 298.08,223.062 300,223.5C 300.945,223.095 301.612,222.428 302,221.5C 303,222.5 304,223.5 305,224.5C 304.845,222.189 304.845,219.856 305,217.5C 307.745,219.62 310.412,219.287 313,216.5C 314.34,217.868 315.674,219.201 317,220.5C 318.722,220.389 318.888,219.889 317.5,219C 318.849,218.228 319.682,217.061 320,215.5C 320.219,216.938 320.719,218.271 321.5,219.5C 323.115,218.846 324.782,218.346 326.5,218C 324.827,214.706 322.827,212.373 320.5,211C 322.211,209.565 323.378,207.731 324,205.5C 324.333,205.833 324.667,206.167 325,206.5C 327.623,205.373 330.123,204.039 332.5,202.5 Z"/></g>
<g><path style="opacity:1" fill="#5294ec" d="M 433.5,289.5 C 433.187,292.247 433.52,294.914 434.5,297.5C 435.994,299.562 437.66,301.562 439.5,303.5C 439.588,302.078 439.588,300.578 439.5,299C 441.33,298.818 442.997,299.318 444.5,300.5C 435.14,310.527 425.473,320.194 415.5,329.5C 414.833,329.5 414.5,329.167 414.5,328.5C 422.73,316.375 429.063,303.375 433.5,289.5 Z"/></g>
<g><path style="opacity:1" fill="#8bb2d6" d="M 414.5,328.5 C 414.5,329.167 414.833,329.5 415.5,329.5C 408.218,337.273 407.885,336.939 414.5,328.5 Z"/></g>
<g><path style="opacity:1" fill="#99bbdb" d="M 383.5,361.5 C 383.5,361.167 383.5,360.833 383.5,360.5C 384.562,358.243 386.228,357.077 388.5,357C 386.963,358.707 385.296,360.207 383.5,361.5 Z"/></g>
<g><path style="opacity:1" fill="#4892f1" d="M 383.5,360.5 C 383.5,360.833 383.5,361.167 383.5,361.5C 350.089,394.411 316.755,427.578 283.5,461C 260.385,475.974 237.052,476.308 213.5,462C 188.327,437.993 163.66,413.493 139.5,388.5C 196.5,387.833 253.5,387.167 310.5,386.5C 337.189,384.161 361.522,375.495 383.5,360.5 Z"/></g>
<g><path style="opacity:1" fill="#639be0" d="M 310.5,386.5 C 253.5,387.167 196.5,387.833 139.5,388.5C 138.711,388.217 138.044,387.717 137.5,387C 195.166,386.5 252.832,386.333 310.5,386.5 Z"/></g>
</svg>
