<?xml version="1.0" encoding="UTF-8"?>
<svg version="1.1" xmlns="http://www.w3.org/2000/svg" width="335" height="335">
<path d="M0 0 C0.75210251 -0.00974854 1.50420502 -0.01949707 2.27909851 -0.02954102 C18.91038126 -0.20070088 34.7932173 0.03203111 50.99609375 4.23828125 C51.74117187 4.4202002 52.48625 4.60211914 53.25390625 4.78955078 C82.61707609 12.04604086 108.46392333 28.31869036 129.99609375 49.23828125 C130.82270508 50.02984619 130.82270508 50.02984619 131.66601562 50.83740234 C135.96881302 55.02753002 139.74495811 59.45451388 143.37109375 64.23828125 C143.93272217 64.97884766 144.49435059 65.71941406 145.07299805 66.48242188 C164.29362776 92.21614477 177.88492647 124.78552903 178.234375 157.2421875 C178.24412354 157.99429001 178.25387207 158.74639252 178.26391602 159.52128601 C178.43507588 176.15256876 178.20234389 192.0354048 173.99609375 208.23828125 C173.8141748 208.98335937 173.63225586 209.7284375 173.44482422 210.49609375 C166.18833414 239.85926359 149.91568464 265.70611083 128.99609375 287.23828125 C128.20452881 288.06489258 128.20452881 288.06489258 127.39697266 288.90820312 C123.20684498 293.21100052 118.77986112 296.98714561 113.99609375 300.61328125 C113.25552734 301.17490967 112.51496094 301.73653809 111.75195312 302.31518555 C86.01823023 321.53581526 53.44884597 335.12711397 20.9921875 335.4765625 C20.24008499 335.48631104 19.48798248 335.49605957 18.71308899 335.50610352 C2.08180624 335.67726338 -13.8010298 335.44453139 -30.00390625 331.23828125 C-30.74898438 331.0563623 -31.4940625 330.87444336 -32.26171875 330.68701172 C-61.62488859 323.43052164 -87.47173583 307.15787214 -109.00390625 286.23828125 C-109.55498047 285.71057129 -110.10605469 285.18286133 -110.67382812 284.63916016 C-114.97662552 280.44903248 -118.75277061 276.02204862 -122.37890625 271.23828125 C-122.94053467 270.49771484 -123.50216309 269.75714844 -124.08081055 268.99414062 C-143.30144026 243.26041773 -156.89273897 210.69103347 -157.2421875 178.234375 C-157.25193604 177.48227249 -157.26168457 176.73016998 -157.27172852 175.95527649 C-157.44288838 159.32399374 -157.21015639 143.4411577 -153.00390625 127.23828125 C-152.8219873 126.49320312 -152.64006836 125.748125 -152.45263672 124.98046875 C-145.19614664 95.61729891 -128.92349714 69.77045167 -108.00390625 48.23828125 C-107.47619629 47.68720703 -106.94848633 47.13613281 -106.40478516 46.56835938 C-102.21465748 42.26556198 -97.78767362 38.48941689 -93.00390625 34.86328125 C-92.26333984 34.30165283 -91.52277344 33.74002441 -90.75976562 33.16137695 C-65.02604273 13.94074724 -32.45665847 0.34944853 0 0 Z " fill="#FCFDFC" transform="translate(157.00390625,-0.23828125)"/>
<path d="M0 0 C1.17840012 -0.00913666 1.17840012 -0.00913666 2.38060629 -0.01845789 C5.02208171 -0.03515178 7.66307841 -0.0303029 10.30459595 -0.0255127 C12.19525658 -0.03284985 14.08591273 -0.04143504 15.9765625 -0.05117798 C21.12176118 -0.07345319 26.26679996 -0.07632123 31.41204023 -0.07443047 C35.71059775 -0.07431091 40.00912122 -0.08287004 44.30766928 -0.09120798 C54.45836053 -0.11046803 64.60896955 -0.11331828 74.75967407 -0.10656738 C85.2132092 -0.09994224 95.66639007 -0.12272341 106.11985338 -0.15988111 C115.10265358 -0.19064678 124.08534033 -0.20193017 133.06819212 -0.1980443 C138.42921004 -0.19598188 143.78995304 -0.20137589 149.15092087 -0.22593689 C154.20224484 -0.24831151 159.25299778 -0.24623742 164.3043251 -0.22600937 C166.15008748 -0.2226169 167.99588905 -0.22761165 169.84159851 -0.24199295 C184.01722768 -0.34474626 196.50394047 1.23018371 207.36172485 11.39440918 C215.70742819 19.65425137 220.31282893 28.71282343 220.73672485 40.58190918 C220.52679639 52.00988979 216.37823251 62.10328914 208.47891235 70.36315918 C200.04180299 78.17162118 190.67514088 81.68660316 179.14631653 81.70220947 C177.94736416 81.71535623 177.94736416 81.71535623 176.72419053 81.72876859 C174.06063387 81.75535997 171.39720922 81.76785985 168.73355103 81.78015137 C166.81772782 81.79596739 164.90191047 81.81250615 162.98609924 81.82971191 C156.70902121 81.88197204 150.43191763 81.9127405 144.1546936 81.94128418 C141.98956093 81.95200936 139.82442841 81.96276439 137.65929604 81.97354889 C128.65263647 82.01677231 119.64598384 82.05424567 110.63924694 82.07679367 C97.74960296 82.10928128 84.86116355 82.17569314 71.9719736 82.28959537 C62.89744124 82.36704524 53.82323082 82.40606435 44.74837667 82.4166348 C39.33285885 82.42393273 33.91862844 82.44787305 28.50346947 82.51284027 C23.40819577 82.57309947 18.31498519 82.58559499 13.21943092 82.56207275 C11.3545931 82.56163211 9.48965814 82.57817603 7.62515259 82.61338043 C-6.3737435 82.86321724 -6.3737435 82.86321724 -11.89316368 79.28324127 C-14.46355289 76.77934257 -16.5647353 74.31775046 -18.63827515 71.39440918 C-19.68697643 69.95529238 -19.68697643 69.95529238 -20.75686359 68.48710251 C-24.75400409 62.78954152 -27.0741543 57.1441922 -28.63827515 50.39440918 C-28.82003296 49.74214355 -29.00179077 49.08987793 -29.1890564 48.41784668 C-31.5187175 37.92424275 -28.62063693 26.66181624 -22.95077515 17.70690918 C-19.25081347 12.60058451 -14.97088926 7.96634865 -10.63827515 3.39440918 C-10.25851721 2.86291008 -9.87875927 2.33141098 -9.48749352 1.78380585 C-6.58994655 -0.39324483 -3.48325177 -0.02517302 0 0 Z " fill="#6ACFF7" transform="translate(30.638275146484375,127.6055908203125)"/>
<path d="M0 0 C3.9585475 2.6574538 7.20183391 5.8206891 10.52695084 9.21870041 C11.25017532 9.94134079 11.97339981 10.66398117 12.71854019 11.40851974 C15.07624668 13.7689844 17.41951229 16.14323618 19.76279068 18.51801682 C21.40671811 20.16941465 23.05153841 21.8199241 24.6972084 23.46958542 C29.00339614 27.79096624 33.29742958 32.12422735 37.58896255 36.46015549 C41.97940983 40.89169201 46.38135662 45.31177375 50.78232193 49.73286057 C59.39902299 58.39232084 68.00291515 67.06438763 76.59872818 75.74457932 C72.55205719 75.74457932 70.19874621 73.74183705 66.91122818 71.61957932 C49.10945232 60.56254865 29.53069042 56.63999786 8.7569313 56.53925705 C7.48779892 56.52935745 6.21866653 56.51945786 4.91107559 56.50925827 C1.45300157 56.4823899 -2.00508584 56.46128339 -5.46320534 56.44125628 C-9.08536679 56.4192843 -12.70748781 56.39195084 -16.32961655 56.36520004 C-23.178776 56.31542392 -30.02795808 56.2704296 -36.8771615 56.22717768 C-44.67891814 56.17767584 -52.48063419 56.12280601 -60.28235149 56.06749809 C-76.32195411 55.95390976 -92.36159405 55.84702096 -108.40127182 55.74457932 C-104.91036914 51.60225068 -101.36506371 47.58003918 -97.54848862 43.7306633 C-96.63701569 42.80958282 -95.72554276 41.88850235 -94.78644943 40.93951035 C-93.808075 39.95628736 -92.8294149 38.97334856 -91.85049057 37.99067307 C-91.0977986 37.23374003 -91.0977986 37.23374003 -90.32990074 36.46151543 C-87.6767758 33.79349242 -85.02086003 31.12828671 -82.36245346 28.46552658 C-79.63922831 25.73681515 -76.92541412 22.99894224 -74.21369839 20.25879955 C-72.10563803 18.13199284 -69.99077986 16.01204281 -67.87409019 13.89382744 C-66.87140742 12.88814717 -65.87119017 11.88000167 -64.87365913 10.8692112 C-45.92240507 -8.31597458 -24.21927781 -14.70552074 0 0 Z " fill="#4692F0" transform="translate(194.40127182006836,10.255420684814453)"/>
<path d="M0 0 C0 3 0 3 -2.01171875 5.0859375 C-2.89472656 5.84132813 -3.77773438 6.59671875 -4.6875 7.375 C-5.6053125 8.17421875 -6.523125 8.9734375 -7.46875 9.796875 C-8.3040625 10.52390625 -9.139375 11.2509375 -10 12 C-11.68615782 13.64694485 -13.35570171 15.31126121 -15 17 C-16.16530771 18.16802404 -17.33208356 19.33458445 -18.5 20.5 C-19.0465625 21.0465625 -19.593125 21.593125 -20.15625 22.15625 C-60.11523437 62.11523437 -60.11523437 62.11523437 -62.15863037 64.15846252 C-63.29415299 65.29408865 -64.42948788 66.42990257 -65.56451416 67.56602478 C-77.1184964 79.13013194 -86.37631605 83.28898905 -102.69482422 83.31689453 C-119.94596845 83.04986937 -130.73517667 72.7281742 -142.25390625 61.07421875 C-143.4063097 59.91875195 -144.55930988 58.76388003 -145.71287537 57.60957336 C-148.11178453 55.20609167 -150.50573533 52.79782216 -152.89575195 50.38549805 C-155.96568682 47.28705906 -159.04444101 44.19757185 -162.12643528 41.11113262 C-164.49886573 38.73455979 -166.86845195 36.35516967 -169.23698235 33.97471046 C-170.37247746 32.83350743 -171.50844934 31.69277858 -172.64489937 30.55252647 C-174.2223844 28.9682097 -175.7964257 27.38055678 -177.36938477 25.79174805 C-178.26601334 24.88829147 -179.16264191 23.9848349 -180.08644104 23.05400085 C-182 21 -182 21 -182 20 C-181.36022469 19.99668985 -180.72044937 19.99337971 -180.06128693 19.98996925 C-164.42503369 19.90840886 -148.78888367 19.81621143 -133.15276337 19.71247292 C-125.59095743 19.66255482 -118.02916122 19.61611137 -110.46728516 19.578125 C-103.8690006 19.54497002 -97.27079648 19.50501325 -90.67260122 19.45720994 C-87.1855928 19.43217592 -83.69863612 19.41032952 -80.21156311 19.39665604 C-50.92492858 19.27729574 -24.72474297 17.05285652 0 0 Z " fill="#4892F1" transform="translate(268,252)"/>
<path d="M0 0 C4.71264207 3.94960703 9.22134064 8.04104451 13.59765625 12.359375 C14.49368813 13.24329926 14.49368813 13.24329926 15.40782166 14.14508057 C16.66045768 15.38399207 17.91162698 16.62438818 19.16137695 17.86621094 C20.42612316 19.11942549 21.69532631 20.36815842 22.96899414 21.61230469 C36.83569554 35.15877133 36.83569554 35.15877133 41 44 C41.32814697 44.66386719 41.65629395 45.32773438 41.99438477 46.01171875 C44.3827843 51.47091769 44.54013919 56.8546194 44.5 62.75 C44.49427979 63.72283936 44.48855957 64.69567871 44.48266602 65.69799805 C44.0796092 81.94648042 35.23438937 92.12857481 24.09765625 103.09765625 C23.01380898 104.17725868 23.01380898 104.17725868 21.9080658 105.27867126 C19.63092057 107.54474705 17.34687424 109.80371423 15.0625 112.0625 C13.50409256 113.61086052 11.9461456 115.15968465 10.38867188 116.70898438 C6.59774718 120.47802463 2.80115258 124.24127647 -1 128 C-1 124.35102986 -0.20363557 123.69840808 2 120.875 C14.48802579 103.49815275 19.15629881 83.93040542 19.25 62.8125 C19.270625 61.66974609 19.29125 60.52699219 19.3125 59.34960938 C19.34947303 51.17394897 18.13861468 43.87505024 16 36 C15.57980591 34.36562988 15.57980591 34.36562988 15.15112305 32.69824219 C12.26218795 21.72410558 6.80828409 11.07046155 0 2 C0 1.34 0 0.68 0 0 Z " fill="#4A91EF" transform="translate(290,106)"/>
<path d="M0 0 C0.33 0 0.66 0 1 0 C1 7.26 1 14.52 1 22 C-0.98 22.99 -0.98 22.99 -3 24 C-2.5359375 22.515 -2.5359375 22.515 -2.0625 21 C-0.31795655 14.17029798 -0.32328707 7.01022481 0 0 Z " fill="#D6E7F4" transform="translate(334,164)"/>
<path d="M0 0 C2.5 -0.5 2.5 -0.5 6 0 C8.95370122 2.41377734 11.48389665 5.13904999 14 8 C10.13375035 8 8.53339391 6.65502846 5.3125 4.5625 C4.31863281 3.92441406 3.32476562 3.28632812 2.30078125 2.62890625 C1.54152344 2.09136719 0.78226562 1.55382812 0 1 C0 0.67 0 0.34 0 0 Z " fill="#5899E8" transform="translate(257,78)"/>
<path d="M0 0 C0.66 0.66 1.32 1.32 2 2 C-1.63 5.63 -5.26 9.26 -9 13 C-9 9.46077448 -8.29518562 8.68108103 -6.1875 5.9375 C-5.40439453 4.89916016 -5.40439453 4.89916016 -4.60546875 3.83984375 C-3 2 -3 2 0 0 Z " fill="#77ACE6" transform="translate(298,221)"/>
<path d="M0 0 C0 3 0 3 -1.3125 4.38671875 C-2.875 5.59114583 -4.4375 6.79557292 -6 8 C-7.32 7.34 -8.64 6.68 -10 6 C-6.7 4.02 -3.4 2.04 0 0 Z " fill="#5F9EE9" transform="translate(268,252)"/>
<path d="M0 0 C1.12894876 0.93274109 2.25300876 1.87140122 3.375 2.8125 C4.00148438 3.33457031 4.62796875 3.85664062 5.2734375 4.39453125 C7 6 7 6 9 9 C6.75 8.875 6.75 8.875 4 8 C0 2.91891892 0 2.91891892 0 0 Z " fill="#5E9BE5" transform="translate(290,106)"/>
<path d="M0 0 C2.4375 0.375 2.4375 0.375 5 1 C5.33 1.66 5.66 2.32 6 3 C4.35 3.33 2.7 3.66 1 4 C0.67 2.68 0.34 1.36 0 0 Z " fill="#5196EA" transform="translate(296,115)"/>
</svg>
